<svg width="48" height="52" viewBox="0 0 48 52" fill="none" xmlns="http://www.w3.org/2000/svg">
<g filter="url(#filter0_di_4_10165)">
<rect x="5" y="6" width="38" height="37" rx="8" fill="#557AB3"/>
</g>
<path d="M23.5 18.5V14L25 15.5C26.6667 17.3333 28.3333 18.5 30 21C30.8 22.2 31 23.5 31 24V29.5C31 29.9 30.3333 30.3333 30 30.5H27.5V24C27.5 23.2 27.1667 22.3333 27 22L23.5 18.5Z" fill="#E3EEFC"/>
<path d="M16 24.5C16 20.5 21 15.8333 23.5 14V18.5L21 21C19.8 22.2 19.5 23.8333 19.5 24.5V30.5H17C16.2 30.5 16 29.5 16 29V24.5Z" fill="#E3EEFC"/>
<path d="M19.5 30.5H27.5V32.5C26.75 33.3333 25.3 35 23.5 35C21.7 35 20.25 33.3333 19.5 32.5V30.5Z" fill="#E3EEFC"/>
<path d="M16 20.9774V17.1387C16 17.0705 15.9323 17.0226 15.8681 17.0457C12.3698 18.3055 11.1646 22.5246 11 24.5C11.3911 33.4955 18.6656 36.8503 22.2606 35.5929C22.3468 35.5628 22.3383 35.4431 22.2525 35.4119C13.3358 32.1652 14.3445 24.4976 15.9905 21.0199C15.9969 21.0064 16 20.9923 16 20.9774Z" fill="#E3EEFC"/>
<path d="M31 20.9774V17.1387C31 17.0705 31.0677 17.0226 31.1319 17.0457C34.6302 18.3055 35.8354 22.5246 36 24.5C35.6089 33.4955 28.3344 36.8503 24.7394 35.5929C24.6532 35.5628 24.6617 35.4431 24.7475 35.4119C33.6642 32.1652 32.6555 24.4976 31.0095 21.0199C31.0031 21.0064 31 20.9923 31 20.9774Z" fill="#E3EEFC"/>
<defs>
<filter id="filter0_di_4_10165" x="1" y="6" width="46" height="45" filterUnits="userSpaceOnUse" color-interpolation-filters="sRGB">
<feFlood flood-opacity="0" result="BackgroundImageFix"/>
<feColorMatrix in="SourceAlpha" type="matrix" values="0 0 0 0 0 0 0 0 0 0 0 0 0 0 0 0 0 0 127 0" result="hardAlpha"/>
<feOffset dy="4"/>
<feGaussianBlur stdDeviation="2"/>
<feComposite in2="hardAlpha" operator="out"/>
<feColorMatrix type="matrix" values="0 0 0 0 0 0 0 0 0 0 0 0 0 0 0 0 0 0 0.25 0"/>
<feBlend mode="normal" in2="BackgroundImageFix" result="effect1_dropShadow_4_10165"/>
<feBlend mode="normal" in="SourceGraphic" in2="effect1_dropShadow_4_10165" result="shape"/>
<feColorMatrix in="SourceAlpha" type="matrix" values="0 0 0 0 0 0 0 0 0 0 0 0 0 0 0 0 0 0 127 0" result="hardAlpha"/>
<feOffset dy="4"/>
<feGaussianBlur stdDeviation="2"/>
<feComposite in2="hardAlpha" operator="arithmetic" k2="-1" k3="1"/>
<feColorMatrix type="matrix" values="0 0 0 0 0 0 0 0 0 0 0 0 0 0 0 0 0 0 0.25 0"/>
<feBlend mode="normal" in2="shape" result="effect2_innerShadow_4_10165"/>
</filter>
</defs>
</svg>
